#N canvas 547 83 568 405 10;
#X obj 20 47 threshold~ 0.2 5000;
#X obj 20 -6 inlet~;
#X obj 20 96 outlet;
#X obj 95 -32 list trim;
#X obj 95 -70 pack s f f f f;
#X msg 88 -110 set;
#X msg 155 -111 0;
#X obj 50 -145 loadbang;
#X obj 200 -141 t b;
#X obj 115 -260 inlet;
#X obj 200 -230 inlet;
#X text 152 -260 Thresshold level;
#X text 238 -231 Debounce time;
#X text 223 -71 <-- concatenate the two params into a message like
;
#X text 248 -55 "set \$1 \$2 0 0" (see [threshold~] help);
#X text 72 94 Bang!;
#X connect 0 0 2 0;
#X connect 1 0 0 0;
#X connect 3 0 0 0;
#X connect 4 0 3 0;
#X connect 5 0 4 0;
#X connect 6 0 4 3;
#X connect 6 0 4 4;
#X connect 7 0 5 0;
#X connect 7 0 6 0;
#X connect 8 0 5 0;
#X connect 9 0 8 0;
#X connect 9 0 4 1;
#X connect 10 0 8 0;
#X connect 10 0 4 2;
