#N canvas 0 54 1280 746 10;
#X text -270 -106 Mic input;
#X obj 171 582 dac~;
#X obj 169 -18 r~ \$0-input;
#X obj -302 -102 adc~;
#X obj -302 -67 s~ \$0-input;
#X msg 318 -60 bang;
#X msg 360 -60 stop;
#X obj 169 15 abstractions/band-pass;
#X obj -148 17 abstractions/lo-pass;
#X obj -147 -38 r~ \$0-input;
#X msg 0 -64 bang;
#X msg 42 -64 stop;
#X obj 170 543 +~;
#X obj 0 -29 metro 2000;
#X obj 318 -25 metro 4000;
#X connect 2 0 7 0;
#X connect 3 0 4 0;
#X connect 3 1 4 0;
#X connect 5 0 14 0;
#X connect 6 0 14 0;
#X connect 7 0 12 0;
#X connect 8 0 12 0;
#X connect 9 0 8 0;
#X connect 10 0 13 0;
#X connect 11 0 13 0;
#X connect 12 0 1 0;
#X connect 12 0 1 1;
#X connect 13 0 8 7;
#X connect 14 0 7 7;
