#N canvas 4 22 1276 756 10;
#X text -431 -50 Mic input;
#X obj 176 999 dac~;
#X obj 196 52 r~ \$0-input;
#X obj -463 -46 adc~;
#X msg 534 12 bang;
#X msg 576 12 stop;
#X obj 318 97 abstractions/band-pass;
#X obj -148 97 abstractions/lo-pass;
#X obj -209 -18 r~ \$0-input;
#X msg 69 26 bang;
#X msg 111 26 stop;
#X obj 176 861 +~;
#X obj 69 61 metro 2000;
#X obj 534 47 metro 4000;
#X msg -458 215 \; pd dsp 1;
#X obj -457 147 loadbang;
#X obj -369 219 print;
#X msg -370 181 Hi;
#X msg -92 2 31;
#X msg -9 58 5000;
#X msg -64 21 0.88;
#X msg 290 -40 1550;
#X msg 318 -21 24;
#X msg 346 -2 3;
#X msg 419 59 187000;
#X floatatom -393 5 9 0 0 0 - - -;
#X obj -390 -11 hsl 128 15 0.1 10 1 1 empty empty Input_Gain -2 -8
0 10 -262144 -1 -1 9400 1;
#X obj -464 84 s~ \$0-input;
#X obj -464 43 *~;
#X obj -78 -68 t b b b b b b b;
#X obj -78 -105 loadbang;
#X obj 176 902 limiter~;
#X obj 250 902 z~ 64;
#X obj 176 941 *~;
#X msg -36 38 1000;
#X msg 92 878 limit 90;
#X obj 92 851 loadbang;
#X obj 879 115 abstractions/hi-pass;
#X obj 810 57 r~ \$0-input;
#X msg 1090 51 bang;
#X msg 1132 51 stop;
#X obj 943 -43 t b b b b b b b;
#X obj 943 -80 loadbang;
#X msg 985 63 1000;
#X obj 1090 86 metro 800;
#N canvas 113 63 815 471 delay 0;
#X obj 441 108 inlet~;
#X obj 442 167 delwrite~ adelay 2000;
#X obj 383 166 *~ 0.6;
#X obj 505 208 delread~ adelay 500;
#X floatatom 107 139 7 0 0 0 - - -;
#X obj 110 123 hsl 128 15 20 2000 1 1 empty empty Time_(millis) -2
-8 0 10 -262144 -1 -1 9300 1;
#X floatatom 105 198 7 0 0 0 - - -;
#X obj 108 182 hsl 128 15 0 1 0 1 empty empty Feedback -2 -8 0 10 -262144
-1 -1 7900 1;
#X obj -1 90 inlet;
#X obj 54 157 inlet;
#X obj 506 256 outlet~;
#X connect 0 0 1 0;
#X connect 2 0 1 0;
#X connect 3 0 2 0;
#X connect 3 0 10 0;
#X connect 4 0 3 0;
#X connect 5 0 4 0;
#X connect 6 0 2 1;
#X connect 7 0 6 0;
#X connect 8 0 5 0;
#X connect 9 0 7 0;
#X coords 0 -1 1 1 150 130 2 100 100;
#X restore 175 625 pd delay;
#X msg 929 27 1;
#X msg 957 46 0.8;
#X msg 1012 83 5000;
#X obj 392 -65 t b b b b b b b b;
#X obj 391 -102 loadbang;
#N canvas 937 109 163 445 reverb 0;
#X obj 36 325 freeverb~;
#X msg 35 52 roomsize \$1;
#X msg 35 97 damping \$1;
#X msg 35 141 width \$1;
#X msg 35 185 wet \$1;
#X msg 35 229 dry \$1;
#X obj 47 206 hsl 60 18 0 1 0 1 empty empty dry 2 9 1 12 -225271 -1
-1 3100 0;
#X obj 47 162 hsl 60 18 0 1 0 1 empty empty wet 2 9 1 12 -225271 -1
-1 3500 0;
#X obj 47 118 hsl 60 18 0 1 0 1 empty empty width 2 9 1 12 -262131
-1 -1 2400 0;
#X obj 47 74 hsl 60 18 0 2 0 1 empty empty damping 2 9 1 12 -261689
-1 -1 0 0;
#X obj 47 29 hsl 60 18 0.11 1.1 0 1 empty empty roomsize 2 9 1 12 -261689
-1 -1 600 0;
#X floatatom 17 33 3 0 0 0 - - -;
#X floatatom 17 78 3 0 0 0 - - -;
#X floatatom 17 123 3 0 0 0 - - -;
#X floatatom 17 166 3 0 0 0 - - -;
#X floatatom 17 210 3 0 0 0 - - -;
#X obj 63 278 inlet~;
#X obj 37 385 outlet~;
#X obj 98 387 outlet~;
#X connect 0 0 17 0;
#X connect 0 1 18 0;
#X connect 1 0 0 0;
#X connect 2 0 0 0;
#X connect 3 0 0 0;
#X connect 4 0 0 0;
#X connect 5 0 0 0;
#X connect 6 0 5 0;
#X connect 6 0 15 0;
#X connect 7 0 4 0;
#X connect 7 0 14 0;
#X connect 8 0 3 0;
#X connect 8 0 13 0;
#X connect 9 0 2 0;
#X connect 9 0 12 0;
#X connect 10 0 1 0;
#X connect 10 0 11 0;
#X connect 16 0 0 0;
#X restore 176 970 pd reverb;
#X msg 26 63 21;
#X msg 374 15 0.41;
#X msg 401 35 3000;
#X msg 474 66 0.3;
#X msg -120 -17 100;
#X msg 900 4 10000;
#X msg 1047 88 0.2;
#X connect 2 0 6 0;
#X connect 3 0 28 0;
#X connect 3 1 28 0;
#X connect 4 0 13 0;
#X connect 5 0 13 0;
#X connect 6 0 45 2;
#X connect 7 0 11 0;
#X connect 8 0 7 0;
#X connect 9 0 12 0;
#X connect 10 0 12 0;
#X connect 11 0 31 0;
#X connect 11 0 32 0;
#X connect 12 0 7 7;
#X connect 13 0 6 8;
#X connect 15 0 14 0;
#X connect 15 0 17 0;
#X connect 17 0 16 0;
#X connect 18 0 7 2;
#X connect 19 0 7 5;
#X connect 20 0 7 3;
#X connect 21 0 6 1;
#X connect 22 0 6 2;
#X connect 23 0 6 3;
#X connect 24 0 6 6;
#X connect 25 0 28 1;
#X connect 26 0 25 0;
#X connect 28 0 27 0;
#X connect 29 0 9 0;
#X connect 29 1 56 0;
#X connect 29 2 18 0;
#X connect 29 3 20 0;
#X connect 29 4 34 0;
#X connect 29 5 19 0;
#X connect 29 6 52 0;
#X connect 30 0 29 0;
#X connect 31 0 33 0;
#X connect 32 0 33 1;
#X connect 33 0 51 0;
#X connect 34 0 7 4;
#X connect 35 0 31 0;
#X connect 36 0 35 0;
#X connect 37 0 11 0;
#X connect 38 0 37 0;
#X connect 39 0 44 0;
#X connect 40 0 44 0;
#X connect 41 0 39 0;
#X connect 41 1 57 0;
#X connect 41 2 46 0;
#X connect 41 3 47 0;
#X connect 41 4 43 0;
#X connect 41 5 48 0;
#X connect 41 6 58 0;
#X connect 42 0 41 0;
#X connect 43 0 37 4;
#X connect 44 0 37 7;
#X connect 45 0 11 0;
#X connect 46 0 37 2;
#X connect 47 0 37 3;
#X connect 48 0 37 5;
#X connect 49 0 4 0;
#X connect 49 1 21 0;
#X connect 49 2 22 0;
#X connect 49 3 23 0;
#X connect 49 4 53 0;
#X connect 49 5 54 0;
#X connect 49 6 24 0;
#X connect 49 7 55 0;
#X connect 50 0 49 0;
#X connect 51 0 1 0;
#X connect 51 1 1 1;
#X connect 52 0 7 6;
#X connect 53 0 6 4;
#X connect 54 0 6 5;
#X connect 55 0 6 7;
#X connect 56 0 7 1;
#X connect 57 0 37 1;
#X connect 58 0 37 6;
