#N canvas 4 22 1276 756 10;
#X text -859 -77 Mic input;
#X obj 176 1079 dac~;
#X obj 240 53 r~ \$0-input;
#X obj -891 -73 adc~;
#X obj 319 97 abstractions/band-pass;
#X obj -148 97 abstractions/lo-pass;
#X obj -209 -18 r~ \$0-input;
#X obj 176 861 +~;
#X msg -886 188 \; pd dsp 1;
#X obj -885 120 loadbang;
#X obj -797 192 print;
#X msg -798 154 Hi;
#X msg -92 2 31;
#X msg -9 58 5000;
#X msg -64 21 0.88;
#X msg 290 -40 1550;
#X msg 318 -21 24;
#X msg 346 -2 3;
#X msg 419 59 187000;
#X floatatom -821 -22 9 0 0 0 - - -;
#X obj -818 -38 hsl 128 15 0.1 10 1 1 empty empty Input_Gain -2 -8
0 10 -262144 -1 -1 10800 1;
#X obj -892 57 s~ \$0-input;
#X obj -892 16 *~;
#X obj -78 -68 t b b b b b b b;
#X obj -78 -105 loadbang;
#X obj 176 902 limiter~;
#X obj 250 902 z~ 64;
#X obj 176 941 *~;
#X msg 92 878 limit 90;
#X obj 92 851 loadbang;
#X obj 879 115 abstractions/hi-pass;
#X obj 810 57 r~ \$0-input;
#X obj 943 -43 t b b b b b b b;
#X obj 943 -80 loadbang;
#N canvas 113 63 815 471 delay 0;
#X obj 441 108 inlet~;
#X obj 442 167 delwrite~ adelay 2000;
#X obj 383 166 *~ 0.6;
#X obj 505 208 delread~ adelay 500;
#X floatatom 107 139 7 0 0 0 - - -;
#X obj 110 123 hsl 128 15 20 2000 1 1 empty empty Time_(millis) -2
-8 0 10 -262144 -1 -1 10363 1;
#X floatatom 105 198 7 0 0 0 - - -;
#X obj 108 182 hsl 128 15 0 1 0 1 empty empty Feedback -2 -8 0 10 -262144
-1 -1 7620 1;
#X obj 9 83 inlet;
#X obj 54 157 inlet;
#X obj 506 256 outlet~;
#X connect 0 0 1 0;
#X connect 2 0 1 0;
#X connect 3 0 2 0;
#X connect 3 0 10 0;
#X connect 4 0 3 0;
#X connect 5 0 4 0;
#X connect 6 0 2 1;
#X connect 7 0 6 0;
#X connect 8 0 5 0;
#X connect 9 0 7 0;
#X coords 0 -1 1 1 150 130 2 100 100;
#X restore 175 625 pd delay;
#X msg 929 27 1;
#X msg 1012 83 5000;
#X obj 392 -65 t b b b b b b b b;
#X obj 391 -102 loadbang;
#N canvas 937 109 163 445 reverb 0;
#X obj 36 325 freeverb~;
#X msg 35 52 roomsize \$1;
#X msg 35 97 damping \$1;
#X msg 35 141 width \$1;
#X msg 35 185 wet \$1;
#X msg 35 229 dry \$1;
#X obj 47 206 hsl 60 18 0 1 0 1 empty empty dry 2 9 1 12 -225271 -1
-1 3100 0;
#X obj 47 162 hsl 60 18 0 1 0 1 empty empty wet 2 9 1 12 -225271 -1
-1 3500 0;
#X obj 47 118 hsl 60 18 0 1 0 1 empty empty width 2 9 1 12 -262131
-1 -1 2400 0;
#X obj 47 74 hsl 60 18 0 2 0 1 empty empty damping 2 9 1 12 -261689
-1 -1 0 0;
#X obj 47 29 hsl 60 18 0.11 1.1 0 1 empty empty roomsize 2 9 1 12 -261689
-1 -1 600 0;
#X floatatom 17 33 3 0 0 0 - - -;
#X floatatom 17 78 3 0 0 0 - - -;
#X floatatom 17 123 3 0 0 0 - - -;
#X floatatom 17 166 3 0 0 0 - - -;
#X floatatom 17 210 3 0 0 0 - - -;
#X obj 63 278 inlet~;
#X obj 37 385 outlet~;
#X obj 98 387 outlet~;
#X connect 0 0 17 0;
#X connect 0 1 18 0;
#X connect 1 0 0 0;
#X connect 2 0 0 0;
#X connect 3 0 0 0;
#X connect 4 0 0 0;
#X connect 5 0 0 0;
#X connect 6 0 5 0;
#X connect 6 0 15 0;
#X connect 7 0 4 0;
#X connect 7 0 14 0;
#X connect 8 0 3 0;
#X connect 8 0 13 0;
#X connect 9 0 2 0;
#X connect 9 0 12 0;
#X connect 10 0 1 0;
#X connect 10 0 11 0;
#X connect 16 0 0 0;
#X restore 176 1050 pd reverb;
#X msg -120 -17 100;
#X msg 900 4 10000;
#X msg 1047 88 0.2;
#X obj -643 79 abstractions/sequencer;
#X obj -643 408 s trigger-bass;
#X obj -492 411 s trigger-mid;
#X obj -340 412 s trigger-hi;
#X obj 78 59 r trigger-bass;
#X obj 534 55 r trigger-mid;
#X text 1821 1405 comment;
#X obj 1104 82 r trigger-hi;
#X msg 26 63 3;
#X msg -36 38 4000;
#X obj 175 586 /;
#X msg 175 553 60000;
#X obj 175 527 trigger bang float;
#X obj 175 470 r tempo;
#X msg 474 66 0.7;
#X msg 401 35 6000;
#X msg 374 15 0.15;
#X msg 957 46 0.3;
#X msg 985 63 3000;
#X obj 175 503 0.5;
#X obj 246 572 loadbang;
#X obj -340 -7 loadbang;
#X floatatom 337 969 9 0 0 0 - - -;
#X obj 340 953 hsl 128 15 0.1 10 1 1 empty empty Volume -2 -8 0 10
-262144 -1 -1 6350 1;
#X obj 176 1001 *~;
#X msg 246 598 0.6;
#X msg -340 31 70;
#X obj -699 -88 r mic-gain;
#X obj -678 -63 print gain;
#X obj -513 23 print tempo;
#X obj -496 -21 r tempo;
#X obj 416 846 r volume;
#X obj 416 880 print volume;
#X obj 523 837 r play;
#X obj 597 776 send play;
#X msg 597 738 0;
#X msg 677 737 1;
#X obj 527 868 select 0 1;
#X msg 523 896 0;
#X msg 576 896 1;
#X connect 2 0 4 0;
#X connect 3 0 22 0;
#X connect 3 1 22 0;
#X connect 4 0 34 2;
#X connect 5 0 7 0;
#X connect 6 0 5 0;
#X connect 7 0 25 0;
#X connect 7 0 26 0;
#X connect 9 0 8 0;
#X connect 9 0 11 0;
#X connect 11 0 10 0;
#X connect 12 0 5 2;
#X connect 13 0 5 5;
#X connect 14 0 5 3;
#X connect 15 0 4 1;
#X connect 16 0 4 2;
#X connect 17 0 4 3;
#X connect 18 0 4 6;
#X connect 19 0 22 1;
#X connect 20 0 19 0;
#X connect 22 0 21 0;
#X connect 23 1 40 0;
#X connect 23 2 12 0;
#X connect 23 3 14 0;
#X connect 23 4 52 0;
#X connect 23 5 13 0;
#X connect 23 6 51 0;
#X connect 24 0 23 0;
#X connect 25 0 27 0;
#X connect 26 0 27 1;
#X connect 27 0 67 0;
#X connect 28 0 25 0;
#X connect 29 0 28 0;
#X connect 30 0 7 0;
#X connect 31 0 30 0;
#X connect 32 1 41 0;
#X connect 32 2 35 0;
#X connect 32 3 60 0;
#X connect 32 4 61 0;
#X connect 32 5 36 0;
#X connect 32 6 42 0;
#X connect 33 0 32 0;
#X connect 34 0 7 0;
#X connect 35 0 30 2;
#X connect 36 0 30 5;
#X connect 37 1 15 0;
#X connect 37 2 16 0;
#X connect 37 3 17 0;
#X connect 37 4 59 0;
#X connect 37 5 58 0;
#X connect 37 6 18 0;
#X connect 37 7 57 0;
#X connect 38 0 37 0;
#X connect 39 0 1 0;
#X connect 39 1 1 1;
#X connect 40 0 5 1;
#X connect 41 0 30 1;
#X connect 42 0 30 6;
#X connect 43 0 44 0;
#X connect 43 1 45 0;
#X connect 43 2 46 0;
#X connect 47 0 5 7;
#X connect 48 0 4 8;
#X connect 50 0 30 7;
#X connect 51 0 5 6;
#X connect 52 0 5 4;
#X connect 53 0 34 0;
#X connect 54 0 53 0;
#X connect 55 0 54 0;
#X connect 55 1 53 1;
#X connect 56 0 62 0;
#X connect 57 0 4 7;
#X connect 58 0 4 5;
#X connect 59 0 4 4;
#X connect 60 0 30 3;
#X connect 61 0 30 4;
#X connect 62 0 55 0;
#X connect 63 0 68 0;
#X connect 64 0 69 0;
#X connect 65 0 67 1;
#X connect 66 0 65 0;
#X connect 67 0 39 0;
#X connect 68 0 34 1;
#X connect 69 0 43 1;
#X connect 70 0 20 0;
#X connect 70 0 71 0;
#X connect 73 0 72 0;
#X connect 73 0 43 1;
#X connect 74 0 66 0;
#X connect 74 0 75 0;
#X connect 76 0 80 0;
#X connect 78 0 77 0;
#X connect 79 0 77 0;
#X connect 80 0 81 0;
#X connect 80 1 82 0;
#X connect 81 0 65 0;
#X connect 82 0 66 0;
