#N canvas 183 57 992 645 10;
#X obj -166 -83 loadbang;
#X obj -166 -16 print PD;
#X obj 181 -7 osc~ 220;
#X obj 181 -49 r frequency;
#X obj 368 -26 r gain;
#X obj 246 124 dac~;
#X msg -27 -50 \; pd dsp 1;
#X msg -166 -49 ThisIsLibPdPrinting;
#X obj 183 43 *~ 0.1;
#X obj 309 40 *~ 0.1;
#X obj 309 -26 adc~;
#X obj 368 6 * 0.5;
#X connect 0 0 7 0;
#X connect 0 0 6 0;
#X connect 2 0 8 0;
#X connect 3 0 2 0;
#X connect 4 0 11 0;
#X connect 7 0 1 0;
#X connect 8 0 5 0;
#X connect 8 0 5 1;
#X connect 9 0 5 0;
#X connect 9 0 5 1;
#X connect 10 0 9 0;
#X connect 10 1 9 0;
#X connect 11 0 9 1;
